<!-- generated by tools/poster.mjs -->
<svg viewBox="0 0 640 460" xmlns="http://www.w3.org/2000/svg" role="img" font-family="'IBM Plex Sans', Arial, sans-serif">
<title>A point cloud and its covariance ellipse turning from data coordinates into principal component coordinates; the old x and y axes tilt away with the cloud and the off-diagonal of the covariance matrix falls to zero.</title>
<defs><clipPath id="sb-bs-syn-clip"><rect x="56" y="44" width="388" height="368"/></clipPath></defs>
<rect x="56" y="44" width="388" height="368" fill="none" stroke="var(--border)" stroke-width="1.5"/>
<line x1="150" y1="412" x2="150" y2="417" stroke="var(--border)" stroke-width="1.5"/>
<text x="150" y="431" text-anchor="middle" font-size="11" fill="var(--text-light)">-2</text>
<line x1="51" y1="328" x2="56" y2="328" stroke="var(--border)" stroke-width="1.5"/>
<text x="48" y="332" text-anchor="end" font-size="11" fill="var(--text-light)">-2</text>
<line x1="250" y1="412" x2="250" y2="417" stroke="var(--border)" stroke-width="1.5"/>
<text x="250" y="431" text-anchor="middle" font-size="11" fill="var(--text-light)">0</text>
<line x1="51" y1="228" x2="56" y2="228" stroke="var(--border)" stroke-width="1.5"/>
<text x="48" y="232" text-anchor="end" font-size="11" fill="var(--text-light)">0</text>
<line x1="350" y1="412" x2="350" y2="417" stroke="var(--border)" stroke-width="1.5"/>
<text x="350" y="431" text-anchor="middle" font-size="11" fill="var(--text-light)">2</text>
<line x1="51" y1="128" x2="56" y2="128" stroke="var(--border)" stroke-width="1.5"/>
<text x="48" y="132" text-anchor="end" font-size="11" fill="var(--text-light)">2</text>
<text x="56" y="26" font-size="14" fill="var(--text)" font-family="'IBM Plex Serif', Georgia, serif" font-style="italic">same cloud. new pair of directions.</text>
<text data-role="x-caption" x="250" y="450" text-anchor="middle" font-size="13" fill="var(--text)">PC1</text>
<text data-role="y-caption" x="16" y="228" text-anchor="middle" font-size="13" fill="var(--text)" transform="rotate(-90 16 228)">PC2</text>
<g clip-path="url(#sb-bs-syn-clip)">
<line x1="56" y1="228" x2="444" y2="228" stroke="var(--border)" stroke-width="1"/>
<line x1="250" y1="44" x2="250" y2="412" stroke="var(--border)" stroke-width="1"/>
<line data-role="old-axis-x" x1="118.34" y1="140.22" x2="381.66" y2="315.78" stroke="var(--text-light)" stroke-width="1.5" stroke-dasharray="7 5"/>
<text x="394.98" y="328.65" text-anchor="middle" font-size="12" fill="var(--text-light)" stroke="var(--bg)" stroke-width="3" paint-order="stroke">x</text>
<line data-role="old-axis-y" x1="162.22" y1="359.66" x2="337.78" y2="96.34" stroke="var(--text-light)" stroke-width="1.5" stroke-dasharray="7 5"/>
<text x="346.65" y="87.02" text-anchor="middle" font-size="12" fill="var(--text-light)" stroke="var(--bg)" stroke-width="3" paint-order="stroke">y</text>
<g transform="translate(250 228) rotate(0)">
<ellipse data-role="ellipse" rx="146.96" ry="58.31" fill="none" stroke="var(--ink)" stroke-width="3"/>
<line data-role="pc1-stripe" x1="-117.09" y1="-29.15" x2="117.09" y2="-29.15" stroke="var(--text-light)" stroke-width="1.25"/>
<line data-role="pc1-stripe" x1="-135.21" y1="0" x2="135.21" y2="0" stroke="var(--text-light)" stroke-width="1.25"/>
<line data-role="pc1-stripe" x1="-117.09" y1="29.15" x2="117.09" y2="29.15" stroke="var(--text-light)" stroke-width="1.25"/>
</g>
<circle data-role="pt" cx="224.45" cy="267.34" r="3" fill="var(--heading)"/>
<circle data-role="pt" cx="85.76" cy="231.93" r="3" fill="var(--heading)"/>
<circle data-role="pt" cx="246.23" cy="226.65" r="3" fill="var(--heading)"/>
<circle data-role="pt" cx="302.51" cy="246.69" r="3" fill="var(--heading)"/>
<circle data-role="pt" cx="231.74" cy="227.7" r="3" fill="var(--heading)"/>
<circle data-role="pt" cx="370.43" cy="235.46" r="3" fill="var(--heading)"/>
<circle data-role="pt" cx="356.71" cy="195.52" r="3" fill="var(--heading)"/>
<circle data-role="pt" cx="347.73" cy="247.28" r="3" fill="var(--heading)"/>
<circle data-role="pt" cx="316.18" cy="278.69" r="3" fill="var(--heading)"/>
<circle data-role="pt" cx="345.27" cy="217.3" r="3" fill="var(--heading)"/>
<circle data-role="pt" cx="285.54" cy="208.89" r="3" fill="var(--heading)"/>
<circle data-role="pt" cx="185.71" cy="207.06" r="3" fill="var(--heading)"/>
<circle data-role="pt" cx="313.06" cy="241.53" r="3" fill="var(--heading)"/>
<circle data-role="pt" cx="336.42" cy="209.91" r="3" fill="var(--heading)"/>
<circle data-role="pt" cx="235.94" cy="221.64" r="3" fill="var(--heading)"/>
<circle data-role="pt" cx="230.7" cy="252.39" r="3" fill="var(--heading)"/>
<circle data-role="pt" cx="374.99" cy="270.56" r="3" fill="var(--heading)"/>
<circle data-role="pt" cx="350.38" cy="247.67" r="3" fill="var(--heading)"/>
<circle data-role="pt" cx="253.19" cy="200.86" r="3" fill="var(--heading)"/>
<circle data-role="pt" cx="202.74" cy="222.48" r="3" fill="var(--heading)"/>
<circle data-role="pt" cx="273.07" cy="284.5" r="3" fill="var(--heading)"/>
<circle data-role="pt" cx="251.32" cy="208.81" r="3" fill="var(--heading)"/>
<circle data-role="pt" cx="155.44" cy="227.76" r="3" fill="var(--heading)"/>
<circle data-role="pt" cx="358.27" cy="185.29" r="3" fill="var(--heading)"/>
<circle data-role="pt" cx="223.58" cy="199.78" r="3" fill="var(--heading)"/>
<circle data-role="pt" cx="307.59" cy="205.63" r="3" fill="var(--heading)"/>
<circle data-role="pt" cx="107.41" cy="284.1" r="3" fill="var(--heading)"/>
<circle data-role="pt" cx="246.44" cy="200.15" r="3" fill="var(--heading)"/>
<circle data-role="pt" cx="293.38" cy="212" r="3" fill="var(--heading)"/>
<circle data-role="pt" cx="102.44" cy="256.72" r="3" fill="var(--heading)"/>
<circle data-role="pt" cx="242.27" cy="222.58" r="3" fill="var(--heading)"/>
<circle data-role="pt" cx="346.95" cy="271.27" r="3" fill="var(--heading)"/>
<circle data-role="pt" cx="287.04" cy="250.48" r="3" fill="var(--heading)"/>
<circle data-role="pt" cx="355.98" cy="267.21" r="3" fill="var(--heading)"/>
<circle data-role="pt" cx="325.32" cy="210.67" r="3" fill="var(--heading)"/>
<circle data-role="pt" cx="256.64" cy="185.6" r="3" fill="var(--heading)"/>
<circle data-role="pt" cx="259.93" cy="243.62" r="3" fill="var(--heading)"/>
<circle data-role="pt" cx="269.89" cy="236.74" r="3" fill="var(--heading)"/>
<circle data-role="pt" cx="250.52" cy="222.09" r="3" fill="var(--heading)"/>
<circle data-role="pt" cx="274.22" cy="244.73" r="3" fill="var(--heading)"/>
<circle data-role="pt" cx="277.84" cy="261.94" r="3" fill="var(--heading)"/>
<circle data-role="pt" cx="255.38" cy="214.41" r="3" fill="var(--heading)"/>
<circle data-role="pt" cx="161.63" cy="242.72" r="3" fill="var(--heading)"/>
<circle data-role="pt" cx="235.38" cy="276.78" r="3" fill="var(--heading)"/>
<circle data-role="pt" cx="303.84" cy="267.5" r="3" fill="var(--heading)"/>
<circle data-role="pt" cx="157.1" cy="239.78" r="3" fill="var(--heading)"/>
<circle data-role="pt" cx="115" cy="229.26" r="3" fill="var(--heading)"/>
<circle data-role="pt" cx="259.94" cy="204.3" r="3" fill="var(--heading)"/>
<circle data-role="pt" cx="232.7" cy="175.42" r="3" fill="var(--heading)"/>
<circle data-role="pt" cx="231.21" cy="255.48" r="3" fill="var(--heading)"/>
<circle data-role="pt" cx="278.41" cy="234.67" r="3" fill="var(--heading)"/>
<circle data-role="pt" cx="94.72" cy="201.19" r="3" fill="var(--heading)"/>
<circle data-role="pt" cx="282.5" cy="185.98" r="3" fill="var(--heading)"/>
<circle data-role="pt" cx="201.07" cy="251.85" r="3" fill="var(--heading)"/>
<circle data-role="pt" cx="163.47" cy="290.26" r="3" fill="var(--heading)"/>
<circle data-role="pt" cx="234.88" cy="215.93" r="3" fill="var(--heading)"/>
<circle data-role="pt" cx="247.13" cy="229.05" r="3" fill="var(--heading)"/>
<circle data-role="pt" cx="344.83" cy="197.1" r="3" fill="var(--heading)"/>
<circle data-role="pt" cx="244.86" cy="265.2" r="3" fill="var(--heading)"/>
<circle data-role="pt" cx="215.72" cy="199.83" r="3" fill="var(--heading)"/>
<circle data-role="pt" cx="149.78" cy="235.37" r="3" fill="var(--heading)"/>
<circle data-role="pt" cx="207.08" cy="199.64" r="3" fill="var(--heading)"/>
<circle data-role="pt" cx="228.42" cy="159.76" r="3" fill="var(--heading)"/>
<circle data-role="pt" cx="138.09" cy="237.88" r="3" fill="var(--heading)"/>
<circle data-role="pt" cx="365.93" cy="202.44" r="3" fill="var(--heading)"/>
<circle data-role="pt" cx="356.71" cy="204.3" r="3" fill="var(--heading)"/>
<circle data-role="pt" cx="290.25" cy="186.51" r="3" fill="var(--heading)"/>
<circle data-role="pt" cx="211.32" cy="226.87" r="3" fill="var(--heading)"/>
<circle data-role="pt" cx="104.09" cy="186.56" r="3" fill="var(--heading)"/>
<circle data-role="pt" cx="313.04" cy="261.87" r="3" fill="var(--heading)"/>
<circle data-role="pt" cx="241" cy="249.86" r="3" fill="var(--heading)"/>
<circle data-role="pt" cx="189.83" cy="189.32" r="3" fill="var(--heading)"/>
<circle data-role="pt" cx="145.8" cy="240.95" r="3" fill="var(--heading)"/>
<circle data-role="pt" cx="263.21" cy="219.6" r="3" fill="var(--heading)"/>
<circle data-role="pt" cx="208.96" cy="201.33" r="3" fill="var(--heading)"/>
<circle data-role="pt" cx="329.89" cy="206.78" r="3" fill="var(--heading)"/>
<circle data-role="pt" cx="215.94" cy="225.43" r="3" fill="var(--heading)"/>
<circle data-role="pt" cx="162.76" cy="234.17" r="3" fill="var(--heading)"/>
<circle data-role="pt" cx="336" cy="266.34" r="3" fill="var(--heading)"/>
<circle data-role="pt" cx="220.9" cy="189.07" r="3" fill="var(--heading)"/>
</g>
<circle data-drag="spin" tabindex="0" aria-label="spin: drag or use arrow keys to turn the cloud into principal component coordinates" cx="381.66" cy="315.78" r="8" fill="var(--bg)" stroke="var(--ink)" stroke-width="2.5" style="cursor:grab"/>
<text data-role="t" x="460" y="64" font-size="16" font-family="'IBM Plex Mono', Consolas, monospace" fill="var(--heading)">t = 1.00</text>
<text x="460" y="82" font-size="11" fill="var(--text-light)">turned 34° of 34°</text>
<text x="534" y="102" text-anchor="middle" font-size="12" fill="var(--text-light)">covariance in these directions</text>
<path d="M458 122h-7v82h7" stroke="var(--ink)" stroke-width="2" fill="none"/>
<path d="M608 122h7v82h-7" stroke="var(--ink)" stroke-width="2" fill="none"/>
<g font-family="'IBM Plex Mono', Consolas, monospace" font-size="15" fill="var(--heading)">
<text data-role="cov-diag" x="501" y="146" text-anchor="middle">2.16</text>
<text data-role="cov-off" x="567" y="146" text-anchor="middle">0.00</text>
<text data-role="cov-off" x="501" y="180" text-anchor="middle">0.00</text>
<text data-role="cov-diag" x="567" y="180" text-anchor="middle">0.34</text>
</g>
<rect x="530" y="128" width="74" height="22" fill="none" stroke="var(--ink)" stroke-width="1.25" stroke-dasharray="3 3"/>
<rect x="464" y="162" width="74" height="22" fill="none" stroke="var(--ink)" stroke-width="1.25" stroke-dasharray="3 3"/>
<text x="460" y="218" font-size="11" fill="var(--text-light)">boxed: the off-diagonal, which is</text>
<text x="460" y="232" font-size="11" fill="var(--text-light)">the tilt. it reaches 0 at t = 1.</text>
<text x="460" y="288" font-size="12" fill="var(--text)">eigenvalues of the cloud</text>
<text data-role="eigs" x="460" y="310" font-size="14" font-family="'IBM Plex Mono', Consolas, monospace" fill="var(--heading)">2.16 and 0.34</text>
<text x="460" y="330" font-size="11" fill="var(--text-light)">the diagonal it is heading for</text>
<line x1="460" y1="346" x2="622" y2="346" stroke="var(--border)" stroke-width="1.5"/>
<text data-role="trace" x="460" y="366" font-size="12" font-family="'IBM Plex Mono', Consolas, monospace" fill="var(--heading)">total = 2.50, unmoved</text>
</svg>
