<!-- generated by tools/poster.mjs -->
<svg viewBox="0 0 640 460" xmlns="http://www.w3.org/2000/svg" role="img" font-family="'IBM Plex Sans', Arial, sans-serif">
<title>One click of Step runs one half of k-means: assign every point to its nearest center with the centers frozen, or move every center to the middle of the points that chose it with membership frozen, never both at once.</title>
<defs><clipPath id="sb-ks-blobs-clip"><rect x="56" y="44" width="384" height="368"/></clipPath></defs>
<rect x="56" y="44" width="384" height="368" fill="none" stroke="var(--border)" stroke-width="1.5"/>
<text x="56" y="26" font-size="14" fill="var(--text)" font-family="'IBM Plex Serif', Georgia, serif" font-style="italic">press Step. watch which half of the algorithm moves.</text>
<g clip-path="url(#sb-ks-blobs-clip)">
<line data-role="wall" x1="440" y1="102.19" x2="438.54" y2="103.14" stroke="var(--ink)" stroke-width="2.5"/>
<line data-role="wall" x1="433.14" y1="106.64" x2="428.4" y2="109.71" stroke="var(--ink)" stroke-width="2.5"/>
<line data-role="wall" x1="438.54" y1="103.14" x2="433.14" y2="106.64" stroke="var(--ink)" stroke-width="2.5"/>
<line data-role="wall" x1="419.43" y1="115.53" x2="418.27" y2="116.29" stroke="var(--ink)" stroke-width="2.5"/>
<line data-role="wall" x1="426.29" y1="111.09" x2="419.43" y2="115.53" stroke="var(--ink)" stroke-width="2.5"/>
<line data-role="wall" x1="428.4" y1="109.71" x2="426.29" y2="111.09" stroke="var(--ink)" stroke-width="2.5"/>
<line data-role="wall" x1="412.57" y1="119.98" x2="408.13" y2="122.86" stroke="var(--ink)" stroke-width="2.5"/>
<line data-role="wall" x1="418.27" y1="116.29" x2="412.57" y2="119.98" stroke="var(--ink)" stroke-width="2.5"/>
<line data-role="wall" x1="62.86" y1="129.22" x2="56" y2="125.33" stroke="var(--ink)" stroke-width="2.5"/>
<line data-role="wall" x1="63.22" y1="129.43" x2="62.86" y2="129.22" stroke="var(--ink)" stroke-width="2.5"/>
<line data-role="wall" x1="398.86" y1="128.87" x2="398" y2="129.43" stroke="var(--ink)" stroke-width="2.5"/>
<line data-role="wall" x1="405.71" y1="124.42" x2="398.86" y2="128.87" stroke="var(--ink)" stroke-width="2.5"/>
<line data-role="wall" x1="408.13" y1="122.86" x2="405.71" y2="124.42" stroke="var(--ink)" stroke-width="2.5"/>
<line data-role="wall" x1="63.22" y1="129.43" x2="69.71" y2="133.12" stroke="var(--ink)" stroke-width="2.5"/>
<line data-role="wall" x1="74.78" y1="136" x2="69.71" y2="133.12" stroke="var(--ink)" stroke-width="2.5"/>
<line data-role="wall" x1="392" y1="133.32" x2="387.86" y2="136" stroke="var(--ink)" stroke-width="2.5"/>
<line data-role="wall" x1="398" y1="129.43" x2="392" y2="133.32" stroke="var(--ink)" stroke-width="2.5"/>
<line data-role="wall" x1="74.78" y1="136" x2="76.57" y2="137.02" stroke="var(--ink)" stroke-width="2.5"/>
<line data-role="wall" x1="83.43" y1="140.91" x2="76.57" y2="137.02" stroke="var(--ink)" stroke-width="2.5"/>
<line data-role="wall" x1="86.35" y1="142.57" x2="83.43" y2="140.91" stroke="var(--ink)" stroke-width="2.5"/>
<line data-role="wall" x1="378.29" y1="142.21" x2="377.73" y2="142.57" stroke="var(--ink)" stroke-width="2.5"/>
<line data-role="wall" x1="385.14" y1="137.76" x2="378.29" y2="142.21" stroke="var(--ink)" stroke-width="2.5"/>
<line data-role="wall" x1="387.86" y1="136" x2="385.14" y2="137.76" stroke="var(--ink)" stroke-width="2.5"/>
<line data-role="wall" x1="86.35" y1="142.57" x2="90.29" y2="144.81" stroke="var(--ink)" stroke-width="2.5"/>
<line data-role="wall" x1="97.14" y1="148.71" x2="90.29" y2="144.81" stroke="var(--ink)" stroke-width="2.5"/>
<line data-role="wall" x1="97.91" y1="149.14" x2="97.14" y2="148.71" stroke="var(--ink)" stroke-width="2.5"/>
<line data-role="wall" x1="371.43" y1="146.65" x2="367.59" y2="149.14" stroke="var(--ink)" stroke-width="2.5"/>
<line data-role="wall" x1="377.73" y1="142.57" x2="371.43" y2="146.65" stroke="var(--ink)" stroke-width="2.5"/>
<line data-role="wall" x1="97.91" y1="149.14" x2="104" y2="152.6" stroke="var(--ink)" stroke-width="2.5"/>
<line data-role="wall" x1="109.47" y1="155.71" x2="104" y2="152.6" stroke="var(--ink)" stroke-width="2.5"/>
<line data-role="wall" x1="357.71" y1="155.55" x2="357.46" y2="155.71" stroke="var(--ink)" stroke-width="2.5"/>
<line data-role="wall" x1="364.57" y1="151.1" x2="357.71" y2="155.55" stroke="var(--ink)" stroke-width="2.5"/>
<line data-role="wall" x1="367.59" y1="149.14" x2="364.57" y2="151.1" stroke="var(--ink)" stroke-width="2.5"/>
<line data-role="wall" x1="109.47" y1="155.71" x2="110.86" y2="156.5" stroke="var(--ink)" stroke-width="2.5"/>
<line data-role="wall" x1="117.71" y1="160.4" x2="110.86" y2="156.5" stroke="var(--ink)" stroke-width="2.5"/>
<line data-role="wall" x1="121.04" y1="162.29" x2="117.71" y2="160.4" stroke="var(--ink)" stroke-width="2.5"/>
<line data-role="wall" x1="350.86" y1="159.99" x2="347.32" y2="162.29" stroke="var(--ink)" stroke-width="2.5"/>
<line data-role="wall" x1="357.46" y1="155.71" x2="350.86" y2="159.99" stroke="var(--ink)" stroke-width="2.5"/>
<line data-role="wall" x1="121.04" y1="162.29" x2="124.57" y2="164.29" stroke="var(--ink)" stroke-width="2.5"/>
<line data-role="wall" x1="131.43" y1="168.19" x2="124.57" y2="164.29" stroke="var(--ink)" stroke-width="2.5"/>
<line data-role="wall" x1="132.6" y1="168.86" x2="131.43" y2="168.19" stroke="var(--ink)" stroke-width="2.5"/>
<line data-role="wall" x1="344" y1="164.44" x2="337.19" y2="168.86" stroke="var(--ink)" stroke-width="2.5"/>
<line data-role="wall" x1="347.32" y1="162.29" x2="344" y2="164.44" stroke="var(--ink)" stroke-width="2.5"/>
<line data-role="wall" x1="132.6" y1="168.86" x2="138.29" y2="172.09" stroke="var(--ink)" stroke-width="2.5"/>
<line data-role="wall" x1="144.17" y1="175.43" x2="138.29" y2="172.09" stroke="var(--ink)" stroke-width="2.5"/>
<line data-role="wall" x1="330.29" y1="173.33" x2="327.05" y2="175.43" stroke="var(--ink)" stroke-width="2.5"/>
<line data-role="wall" x1="337.14" y1="168.88" x2="330.29" y2="173.33" stroke="var(--ink)" stroke-width="2.5"/>
<line data-role="wall" x1="337.19" y1="168.86" x2="337.14" y2="168.88" stroke="var(--ink)" stroke-width="2.5"/>
<line data-role="wall" x1="144.17" y1="175.43" x2="145.14" y2="175.98" stroke="var(--ink)" stroke-width="2.5"/>
<line data-role="wall" x1="152" y1="179.88" x2="145.14" y2="175.98" stroke="var(--ink)" stroke-width="2.5"/>
<line data-role="wall" x1="155.73" y1="182" x2="152" y2="179.88" stroke="var(--ink)" stroke-width="2.5"/>
<line data-role="wall" x1="323.43" y1="177.78" x2="316.91" y2="182" stroke="var(--ink)" stroke-width="2.5"/>
<line data-role="wall" x1="327.05" y1="175.43" x2="323.43" y2="177.78" stroke="var(--ink)" stroke-width="2.5"/>
<line data-role="wall" x1="155.73" y1="182" x2="158.86" y2="183.78" stroke="var(--ink)" stroke-width="2.5"/>
<line data-role="wall" x1="165.71" y1="187.67" x2="158.86" y2="183.78" stroke="var(--ink)" stroke-width="2.5"/>
<line data-role="wall" x1="167.29" y1="188.57" x2="165.71" y2="187.67" stroke="var(--ink)" stroke-width="2.5"/>
<line data-role="wall" x1="309.71" y1="186.67" x2="306.78" y2="188.57" stroke="var(--ink)" stroke-width="2.5"/>
<line data-role="wall" x1="316.57" y1="182.22" x2="309.71" y2="186.67" stroke="var(--ink)" stroke-width="2.5"/>
<line data-role="wall" x1="316.91" y1="182" x2="316.57" y2="182.22" stroke="var(--ink)" stroke-width="2.5"/>
<line data-role="wall" x1="167.29" y1="188.57" x2="172.57" y2="191.57" stroke="var(--ink)" stroke-width="2.5"/>
<line data-role="wall" x1="178.86" y1="195.14" x2="172.57" y2="191.57" stroke="var(--ink)" stroke-width="2.5"/>
<line data-role="wall" x1="302.86" y1="191.11" x2="296.64" y2="195.14" stroke="var(--ink)" stroke-width="2.5"/>
<line data-role="wall" x1="306.78" y1="188.57" x2="302.86" y2="191.11" stroke="var(--ink)" stroke-width="2.5"/>
<line data-role="wall" x1="178.86" y1="195.14" x2="179.43" y2="195.47" stroke="var(--ink)" stroke-width="2.5"/>
<line data-role="wall" x1="186.29" y1="199.36" x2="179.43" y2="195.47" stroke="var(--ink)" stroke-width="2.5"/>
<line data-role="wall" x1="190.42" y1="201.71" x2="186.29" y2="199.36" stroke="var(--ink)" stroke-width="2.5"/>
<line data-role="wall" x1="289.14" y1="200.01" x2="286.51" y2="201.71" stroke="var(--ink)" stroke-width="2.5"/>
<line data-role="wall" x1="296" y1="195.56" x2="289.14" y2="200.01" stroke="var(--ink)" stroke-width="2.5"/>
<line data-role="wall" x1="296.64" y1="195.14" x2="296" y2="195.56" stroke="var(--ink)" stroke-width="2.5"/>
<line data-role="wall" x1="190.42" y1="201.71" x2="193.14" y2="203.26" stroke="var(--ink)" stroke-width="2.5"/>
<line data-role="wall" x1="200" y1="207.16" x2="193.14" y2="203.26" stroke="var(--ink)" stroke-width="2.5"/>
<line data-role="wall" x1="201.99" y1="208.29" x2="200" y2="207.16" stroke="var(--ink)" stroke-width="2.5"/>
<line data-role="wall" x1="282.29" y1="204.45" x2="276.37" y2="208.29" stroke="var(--ink)" stroke-width="2.5"/>
<line data-role="wall" x1="286.51" y1="201.71" x2="282.29" y2="204.45" stroke="var(--ink)" stroke-width="2.5"/>
<line data-role="wall" x1="201.99" y1="208.29" x2="206.86" y2="211.05" stroke="var(--ink)" stroke-width="2.5"/>
<line data-role="wall" x1="213.55" y1="214.86" x2="206.86" y2="211.05" stroke="var(--ink)" stroke-width="2.5"/>
<line data-role="wall" x1="268.57" y1="213.34" x2="266.24" y2="214.86" stroke="var(--ink)" stroke-width="2.5"/>
<line data-role="wall" x1="275.43" y1="208.9" x2="268.57" y2="213.34" stroke="var(--ink)" stroke-width="2.5"/>
<line data-role="wall" x1="276.37" y1="208.29" x2="275.43" y2="208.9" stroke="var(--ink)" stroke-width="2.5"/>
<line data-role="wall" x1="213.55" y1="214.86" x2="213.71" y2="214.95" stroke="var(--ink)" stroke-width="2.5"/>
<line data-role="wall" x1="220.57" y1="218.85" x2="213.71" y2="214.95" stroke="var(--ink)" stroke-width="2.5"/>
<line data-role="wall" x1="225.11" y1="221.43" x2="220.57" y2="218.85" stroke="var(--ink)" stroke-width="2.5"/>
<line data-role="wall" x1="261.71" y1="217.79" x2="256.1" y2="221.43" stroke="var(--ink)" stroke-width="2.5"/>
<line data-role="wall" x1="266.24" y1="214.86" x2="261.71" y2="217.79" stroke="var(--ink)" stroke-width="2.5"/>
<line data-role="wall" x1="225.11" y1="221.43" x2="227.43" y2="222.74" stroke="var(--ink)" stroke-width="2.5"/>
<line data-role="wall" x1="234.29" y1="226.64" x2="227.43" y2="222.74" stroke="var(--ink)" stroke-width="2.5"/>
<line data-role="wall" x1="236.68" y1="228" x2="234.29" y2="226.64" stroke="var(--ink)" stroke-width="2.5"/>
<line data-role="wall" x1="248" y1="226.68" x2="245.89" y2="228" stroke="var(--ink)" stroke-width="2.5"/>
<line data-role="wall" x1="254.86" y1="222.24" x2="248" y2="226.68" stroke="var(--ink)" stroke-width="2.5"/>
<line data-role="wall" x1="256.1" y1="221.43" x2="254.86" y2="222.24" stroke="var(--ink)" stroke-width="2.5"/>
<line data-role="wall" x1="236.68" y1="228" x2="241.14" y2="230.54" stroke="var(--ink)" stroke-width="2.5"/>
<line data-role="wall" x1="245.89" y1="228" x2="241.14" y2="230.54" stroke="var(--ink)" stroke-width="2.5"/>
<line data-role="wall" x1="236.68" y1="228" x2="241.14" y2="232.59" stroke="var(--ink)" stroke-width="2.5"/>
<line data-role="wall" x1="242.12" y1="234.57" x2="241.14" y2="232.59" stroke="var(--ink)" stroke-width="2.5"/>
<line data-role="wall" x1="242.12" y1="234.57" x2="242.97" y2="241.14" stroke="var(--ink)" stroke-width="2.5"/>
<line data-role="wall" x1="242.97" y1="241.14" x2="243.83" y2="247.71" stroke="var(--ink)" stroke-width="2.5"/>
<line data-role="wall" x1="243.83" y1="247.71" x2="244.68" y2="254.29" stroke="var(--ink)" stroke-width="2.5"/>
<line data-role="wall" x1="244.68" y1="254.29" x2="245.54" y2="260.86" stroke="var(--ink)" stroke-width="2.5"/>
<line data-role="wall" x1="245.54" y1="260.86" x2="246.39" y2="267.43" stroke="var(--ink)" stroke-width="2.5"/>
<line data-role="wall" x1="246.39" y1="267.43" x2="247.25" y2="274" stroke="var(--ink)" stroke-width="2.5"/>
<line data-role="wall" x1="247.25" y1="274" x2="248" y2="279.8" stroke="var(--ink)" stroke-width="2.5"/>
<line data-role="wall" x1="248.1" y1="280.57" x2="248" y2="279.8" stroke="var(--ink)" stroke-width="2.5"/>
<line data-role="wall" x1="248.1" y1="280.57" x2="248.95" y2="287.14" stroke="var(--ink)" stroke-width="2.5"/>
<line data-role="wall" x1="248.95" y1="287.14" x2="249.81" y2="293.71" stroke="var(--ink)" stroke-width="2.5"/>
<line data-role="wall" x1="249.81" y1="293.71" x2="250.66" y2="300.29" stroke="var(--ink)" stroke-width="2.5"/>
<line data-role="wall" x1="250.66" y1="300.29" x2="251.52" y2="306.86" stroke="var(--ink)" stroke-width="2.5"/>
<line data-role="wall" x1="251.52" y1="306.86" x2="252.37" y2="313.43" stroke="var(--ink)" stroke-width="2.5"/>
<line data-role="wall" x1="252.37" y1="313.43" x2="253.23" y2="320" stroke="var(--ink)" stroke-width="2.5"/>
<line data-role="wall" x1="253.23" y1="320" x2="254.08" y2="326.57" stroke="var(--ink)" stroke-width="2.5"/>
<line data-role="wall" x1="254.08" y1="326.57" x2="254.86" y2="332.52" stroke="var(--ink)" stroke-width="2.5"/>
<line data-role="wall" x1="254.94" y1="333.14" x2="254.86" y2="332.52" stroke="var(--ink)" stroke-width="2.5"/>
<line data-role="wall" x1="254.94" y1="333.14" x2="255.79" y2="339.71" stroke="var(--ink)" stroke-width="2.5"/>
<line data-role="wall" x1="255.79" y1="339.71" x2="256.65" y2="346.29" stroke="var(--ink)" stroke-width="2.5"/>
<line data-role="wall" x1="256.65" y1="346.29" x2="257.5" y2="352.86" stroke="var(--ink)" stroke-width="2.5"/>
<line data-role="wall" x1="257.5" y1="352.86" x2="258.36" y2="359.43" stroke="var(--ink)" stroke-width="2.5"/>
<line data-role="wall" x1="258.36" y1="359.43" x2="259.21" y2="366" stroke="var(--ink)" stroke-width="2.5"/>
<line data-role="wall" x1="259.21" y1="366" x2="260.07" y2="372.57" stroke="var(--ink)" stroke-width="2.5"/>
<line data-role="wall" x1="260.07" y1="372.57" x2="260.92" y2="379.14" stroke="var(--ink)" stroke-width="2.5"/>
<line data-role="wall" x1="260.92" y1="379.14" x2="261.71" y2="385.24" stroke="var(--ink)" stroke-width="2.5"/>
<line data-role="wall" x1="261.78" y1="385.71" x2="261.71" y2="385.24" stroke="var(--ink)" stroke-width="2.5"/>
<line data-role="wall" x1="261.78" y1="385.71" x2="262.63" y2="392.29" stroke="var(--ink)" stroke-width="2.5"/>
<line data-role="wall" x1="262.63" y1="392.29" x2="263.49" y2="398.86" stroke="var(--ink)" stroke-width="2.5"/>
<line data-role="wall" x1="263.49" y1="398.86" x2="264.34" y2="405.43" stroke="var(--ink)" stroke-width="2.5"/>
<line data-role="wall" x1="264.34" y1="405.43" x2="265.19" y2="412" stroke="var(--ink)" stroke-width="2.5"/>
<line data-role="wall" x1="245.97" y1="228" x2="242.12" y2="234.57" stroke="var(--ink)" stroke-width="2.5"/>
<path data-role="pt" data-cluster="1" data-mark="square" d="M130.54 284.16H139.54V293.16H130.54Z" fill="var(--heading)"/>
<path data-role="pt" data-cluster="1" data-mark="square" d="M111.62 302.7H120.62V311.7H111.62Z" fill="var(--heading)"/>
<path data-role="pt" data-cluster="1" data-mark="square" d="M139.65 252.09H148.65V261.09H139.65Z" fill="var(--heading)"/>
<path data-role="pt" data-cluster="1" data-mark="square" d="M145.22 316.81H154.22V325.81H145.22Z" fill="var(--heading)"/>
<path data-role="pt" data-cluster="1" data-mark="square" d="M136.73 348.36H145.73V357.36H136.73Z" fill="var(--heading)"/>
<path data-role="pt" data-cluster="1" data-mark="square" d="M163.03 256.9H172.03V265.9H163.03Z" fill="var(--heading)"/>
<path data-role="pt" data-cluster="1" data-mark="square" d="M183.08 270.13H192.08V279.13H183.08Z" fill="var(--heading)"/>
<path data-role="pt" data-cluster="1" data-mark="square" d="M174.66 256.33H183.66V265.33H174.66Z" fill="var(--heading)"/>
<path data-role="pt" data-cluster="1" data-mark="square" d="M160.23 309.01H169.23V318.01H160.23Z" fill="var(--heading)"/>
<path data-role="pt" data-cluster="1" data-mark="square" d="M202.87 297.31H211.87V306.31H202.87Z" fill="var(--heading)"/>
<path data-role="pt" data-cluster="1" data-mark="square" d="M129.13 290.82H138.13V299.82H129.13Z" fill="var(--heading)"/>
<path data-role="pt" data-cluster="1" data-mark="square" d="M161.45 271.28H170.45V280.28H161.45Z" fill="var(--heading)"/>
<path data-role="pt" data-cluster="1" data-mark="square" d="M141.92 304.43H150.92V313.43H141.92Z" fill="var(--heading)"/>
<path data-role="pt" data-cluster="1" data-mark="square" d="M144.4 271.3H153.4V280.3H144.4Z" fill="var(--heading)"/>
<path data-role="pt" data-cluster="1" data-mark="square" d="M144.36 273.54H153.36V282.54H144.36Z" fill="var(--heading)"/>
<path data-role="pt" data-cluster="1" data-mark="square" d="M195.52 308.64H204.52V317.64H195.52Z" fill="var(--heading)"/>
<path data-role="pt" data-cluster="1" data-mark="square" d="M168.04 287.5H177.04V296.5H168.04Z" fill="var(--heading)"/>
<path data-role="pt" data-cluster="1" data-mark="square" d="M149.57 270.72H158.57V279.72H149.57Z" fill="var(--heading)"/>
<path data-role="pt" data-cluster="1" data-mark="square" d="M161.61 234.42H170.61V243.42H161.61Z" fill="var(--heading)"/>
<path data-role="pt" data-cluster="1" data-mark="square" d="M170.75 302.64H179.75V311.64H170.75Z" fill="var(--heading)"/>
<path data-role="pt" data-cluster="1" data-mark="square" d="M125.04 282.47H134.04V291.47H125.04Z" fill="var(--heading)"/>
<path data-role="pt" data-cluster="1" data-mark="square" d="M119.24 282.55H128.24V291.55H119.24Z" fill="var(--heading)"/>
<path data-role="pt" data-cluster="1" data-mark="square" d="M152.76 304.9H161.76V313.9H152.76Z" fill="var(--heading)"/>
<path data-role="pt" data-cluster="1" data-mark="square" d="M177.81 285.37H186.81V294.37H177.81Z" fill="var(--heading)"/>
<path data-role="pt" data-cluster="1" data-mark="square" d="M163.2 324.26H172.2V333.26H163.2Z" fill="var(--heading)"/>
<path data-role="pt" data-cluster="1" data-mark="square" d="M160.11 276.15H169.11V285.15H160.11Z" fill="var(--heading)"/>
<path data-role="pt" data-cluster="1" data-mark="square" d="M145.45 309.91H154.45V318.91H145.45Z" fill="var(--heading)"/>
<path data-role="pt" data-cluster="1" data-mark="square" d="M128.04 269.9H137.04V278.9H128.04Z" fill="var(--heading)"/>
<path data-role="pt" data-cluster="1" data-mark="square" d="M166.54 269.91H175.54V278.91H166.54Z" fill="var(--heading)"/>
<path data-role="pt" data-cluster="1" data-mark="square" d="M170.75 286.23H179.75V295.23H170.75Z" fill="var(--heading)"/>
<path data-role="pt" data-cluster="1" data-mark="square" d="M145.81 263.86H154.81V272.86H145.81Z" fill="var(--heading)"/>
<path data-role="pt" data-cluster="1" data-mark="square" d="M153.34 299.73H162.34V308.73H153.34Z" fill="var(--heading)"/>
<path data-role="pt" data-cluster="1" data-mark="square" d="M188.51 282.94H197.51V291.94H188.51Z" fill="var(--heading)"/>
<path data-role="pt" data-cluster="1" data-mark="square" d="M145.61 247.34H154.61V256.34H145.61Z" fill="var(--heading)"/>
<path data-role="pt" data-cluster="1" data-mark="square" d="M188.04 255.83H197.04V264.83H188.04Z" fill="var(--heading)"/>
<path data-role="pt" data-cluster="1" data-mark="square" d="M170.34 284.39H179.34V293.39H170.34Z" fill="var(--heading)"/>
<path data-role="pt" data-cluster="1" data-mark="square" d="M124.27 289.34H133.27V298.34H124.27Z" fill="var(--heading)"/>
<path data-role="pt" data-cluster="1" data-mark="square" d="M136.03 283.01H145.03V292.01H136.03Z" fill="var(--heading)"/>
<path data-role="pt" data-cluster="1" data-mark="square" d="M131.54 298.21H140.54V307.21H131.54Z" fill="var(--heading)"/>
<path data-role="pt" data-cluster="1" data-mark="square" d="M134.39 292.57H143.39V301.57H134.39Z" fill="var(--heading)"/>
<path data-role="pt" data-cluster="1" data-mark="square" d="M154.44 291.97H163.44V300.97H154.44Z" fill="var(--heading)"/>
<path data-role="pt" data-cluster="1" data-mark="square" d="M173.95 246.96H182.95V255.96H173.95Z" fill="var(--heading)"/>
<path data-role="pt" data-cluster="1" data-mark="square" d="M156.83 297.15H165.83V306.15H156.83Z" fill="var(--heading)"/>
<path data-role="pt" data-cluster="1" data-mark="square" d="M165.97 291.14H174.97V300.14H165.97Z" fill="var(--heading)"/>
<path data-role="pt" data-cluster="1" data-mark="square" d="M178.78 265.31H187.78V274.31H178.78Z" fill="var(--heading)"/>
<path data-role="pt" data-cluster="1" data-mark="square" d="M141.36 309.07H150.36V318.07H141.36Z" fill="var(--heading)"/>
<path data-role="pt" data-cluster="1" data-mark="square" d="M154.56 306.46H163.56V315.46H154.56Z" fill="var(--heading)"/>
<path data-role="pt" data-cluster="1" data-mark="square" d="M147.18 271.84H156.18V280.84H147.18Z" fill="var(--heading)"/>
<path data-role="pt" data-cluster="1" data-mark="square" d="M166.47 254.37H175.47V263.37H166.47Z" fill="var(--heading)"/>
<path data-role="pt" data-cluster="1" data-mark="square" d="M139.88 262.56H148.88V271.56H139.88Z" fill="var(--heading)"/>
<path data-role="pt" data-cluster="2" data-mark="triangle" d="M324.85 255.12L329.35 263.22L320.35 263.22Z" fill="var(--heading)"/>
<path data-role="pt" data-cluster="2" data-mark="triangle" d="M321.25 243.23L325.75 251.33L316.75 251.33Z" fill="var(--heading)"/>
<path data-role="pt" data-cluster="2" data-mark="triangle" d="M323.14 268.19L327.64 276.29L318.64 276.29Z" fill="var(--heading)"/>
<path data-role="pt" data-cluster="2" data-mark="triangle" d="M351.91 290.38L356.41 298.48L347.41 298.48Z" fill="var(--heading)"/>
<path data-role="pt" data-cluster="2" data-mark="triangle" d="M385.4 265.75L389.9 273.85L380.9 273.85Z" fill="var(--heading)"/>
<path data-role="pt" data-cluster="2" data-mark="triangle" d="M338.73 269.77L343.23 277.87L334.23 277.87Z" fill="var(--heading)"/>
<path data-role="pt" data-cluster="2" data-mark="triangle" d="M328 222.27L332.5 230.37L323.5 230.37Z" fill="var(--heading)"/>
<path data-role="pt" data-cluster="2" data-mark="triangle" d="M302.8 267.56L307.3 275.66L298.3 275.66Z" fill="var(--heading)"/>
<path data-role="pt" data-cluster="2" data-mark="triangle" d="M337.22 282.15L341.72 290.25L332.72 290.25Z" fill="var(--heading)"/>
<path data-role="pt" data-cluster="2" data-mark="triangle" d="M311.1 288.22L315.6 296.32L306.6 296.32Z" fill="var(--heading)"/>
<path data-role="pt" data-cluster="2" data-mark="triangle" d="M320.32 243.13L324.82 251.23L315.82 251.23Z" fill="var(--heading)"/>
<path data-role="pt" data-cluster="2" data-mark="triangle" d="M331.35 285.76L335.85 293.86L326.85 293.86Z" fill="var(--heading)"/>
<path data-role="pt" data-cluster="2" data-mark="triangle" d="M315.69 220.06L320.19 228.16L311.19 228.16Z" fill="var(--heading)"/>
<path data-role="pt" data-cluster="2" data-mark="triangle" d="M373.18 228.87L377.68 236.97L368.68 236.97Z" fill="var(--heading)"/>
<path data-role="pt" data-cluster="2" data-mark="triangle" d="M306.34 242.8L310.84 250.9L301.84 250.9Z" fill="var(--heading)"/>
<path data-role="pt" data-cluster="2" data-mark="triangle" d="M298.91 273.51L303.41 281.61L294.41 281.61Z" fill="var(--heading)"/>
<path data-role="pt" data-cluster="2" data-mark="triangle" d="M353.01 262.8L357.51 270.9L348.51 270.9Z" fill="var(--heading)"/>
<path data-role="pt" data-cluster="2" data-mark="triangle" d="M339.65 254.9L344.15 263L335.15 263Z" fill="var(--heading)"/>
<path data-role="pt" data-cluster="2" data-mark="triangle" d="M344.8 223.06L349.3 231.16L340.3 231.16Z" fill="var(--heading)"/>
<path data-role="pt" data-cluster="2" data-mark="triangle" d="M330 272.14L334.5 280.24L325.5 280.24Z" fill="var(--heading)"/>
<path data-role="pt" data-cluster="2" data-mark="triangle" d="M356.79 309.78L361.29 317.88L352.29 317.88Z" fill="var(--heading)"/>
<path data-role="pt" data-cluster="2" data-mark="triangle" d="M327.38 275.37L331.88 283.47L322.88 283.47Z" fill="var(--heading)"/>
<path data-role="pt" data-cluster="2" data-mark="triangle" d="M369.79 263.48L374.29 271.58L365.29 271.58Z" fill="var(--heading)"/>
<path data-role="pt" data-cluster="2" data-mark="triangle" d="M349.68 265.9L354.18 274L345.18 274Z" fill="var(--heading)"/>
<path data-role="pt" data-cluster="2" data-mark="triangle" d="M342.42 295.37L346.92 303.47L337.92 303.47Z" fill="var(--heading)"/>
<path data-role="pt" data-cluster="2" data-mark="triangle" d="M318.67 280.23L323.17 288.33L314.17 288.33Z" fill="var(--heading)"/>
<path data-role="pt" data-cluster="2" data-mark="triangle" d="M357.06 262.41L361.56 270.51L352.56 270.51Z" fill="var(--heading)"/>
<path data-role="pt" data-cluster="2" data-mark="triangle" d="M311.89 250.14L316.39 258.24L307.39 258.24Z" fill="var(--heading)"/>
<path data-role="pt" data-cluster="2" data-mark="triangle" d="M355.26 239.22L359.76 247.32L350.76 247.32Z" fill="var(--heading)"/>
<path data-role="pt" data-cluster="2" data-mark="triangle" d="M318.91 250.38L323.41 258.48L314.41 258.48Z" fill="var(--heading)"/>
<path data-role="pt" data-cluster="2" data-mark="triangle" d="M348.2 252.1L352.7 260.2L343.7 260.2Z" fill="var(--heading)"/>
<path data-role="pt" data-cluster="2" data-mark="triangle" d="M366.84 266.78L371.34 274.88L362.34 274.88Z" fill="var(--heading)"/>
<path data-role="pt" data-cluster="2" data-mark="triangle" d="M336.8 266.45L341.3 274.55L332.3 274.55Z" fill="var(--heading)"/>
<path data-role="pt" data-cluster="2" data-mark="triangle" d="M356.44 272.09L360.94 280.19L351.94 280.19Z" fill="var(--heading)"/>
<path data-role="pt" data-cluster="2" data-mark="triangle" d="M357.59 243.1L362.09 251.2L353.09 251.2Z" fill="var(--heading)"/>
<path data-role="pt" data-cluster="2" data-mark="triangle" d="M317.42 283.15L321.92 291.25L312.92 291.25Z" fill="var(--heading)"/>
<path data-role="pt" data-cluster="2" data-mark="triangle" d="M316.77 236.31L321.27 244.41L312.27 244.41Z" fill="var(--heading)"/>
<path data-role="pt" data-cluster="2" data-mark="triangle" d="M367.43 248.7L371.93 256.8L362.93 256.8Z" fill="var(--heading)"/>
<path data-role="pt" data-cluster="2" data-mark="triangle" d="M328.91 216.36L333.41 224.46L324.41 224.46Z" fill="var(--heading)"/>
<path data-role="pt" data-cluster="2" data-mark="triangle" d="M323.4 241.43L327.9 249.53L318.9 249.53Z" fill="var(--heading)"/>
<path data-role="pt" data-cluster="2" data-mark="triangle" d="M351.45 268.65L355.95 276.75L346.95 276.75Z" fill="var(--heading)"/>
<path data-role="pt" data-cluster="2" data-mark="triangle" d="M302.11 298.61L306.61 306.71L297.61 306.71Z" fill="var(--heading)"/>
<path data-role="pt" data-cluster="2" data-mark="triangle" d="M331.9 279.97L336.4 288.07L327.4 288.07Z" fill="var(--heading)"/>
<path data-role="pt" data-cluster="2" data-mark="triangle" d="M312.64 253.84L317.14 261.94L308.14 261.94Z" fill="var(--heading)"/>
<path data-role="pt" data-cluster="2" data-mark="triangle" d="M350.14 221.51L354.64 229.61L345.64 229.61Z" fill="var(--heading)"/>
<path data-role="pt" data-cluster="2" data-mark="triangle" d="M304.05 258.26L308.55 266.36L299.55 266.36Z" fill="var(--heading)"/>
<path data-role="pt" data-cluster="2" data-mark="triangle" d="M331.48 269.67L335.98 277.77L326.98 277.77Z" fill="var(--heading)"/>
<path data-role="pt" data-cluster="2" data-mark="triangle" d="M353.52 257.76L358.02 265.86L349.02 265.86Z" fill="var(--heading)"/>
<path data-role="pt" data-cluster="2" data-mark="triangle" d="M342.51 277.63L347.01 285.73L338.01 285.73Z" fill="var(--heading)"/>
<path data-role="pt" data-cluster="2" data-mark="triangle" d="M370.99 276.75L375.49 284.85L366.49 284.85Z" fill="var(--heading)"/>
<path data-role="pt" data-cluster="0" data-mark="circle" d="M247.09 103.3a4.5 4.5 0 1 0 9 0a4.5 4.5 0 1 0 -9 0Z" fill="var(--heading)"/>
<path data-role="pt" data-cluster="0" data-mark="circle" d="M268.47 138.13a4.5 4.5 0 1 0 9 0a4.5 4.5 0 1 0 -9 0Z" fill="var(--heading)"/>
<path data-role="pt" data-cluster="0" data-mark="circle" d="M248.94 103.7a4.5 4.5 0 1 0 9 0a4.5 4.5 0 1 0 -9 0Z" fill="var(--heading)"/>
<path data-role="pt" data-cluster="0" data-mark="circle" d="M228.6 121.1a4.5 4.5 0 1 0 9 0a4.5 4.5 0 1 0 -9 0Z" fill="var(--heading)"/>
<path data-role="pt" data-cluster="0" data-mark="circle" d="M235.62 111.93a4.5 4.5 0 1 0 9 0a4.5 4.5 0 1 0 -9 0Z" fill="var(--heading)"/>
<path data-role="pt" data-cluster="0" data-mark="circle" d="M238.64 95.1a4.5 4.5 0 1 0 9 0a4.5 4.5 0 1 0 -9 0Z" fill="var(--heading)"/>
<path data-role="pt" data-cluster="0" data-mark="circle" d="M236.58 127.62a4.5 4.5 0 1 0 9 0a4.5 4.5 0 1 0 -9 0Z" fill="var(--heading)"/>
<path data-role="pt" data-cluster="0" data-mark="circle" d="M232.99 152.11a4.5 4.5 0 1 0 9 0a4.5 4.5 0 1 0 -9 0Z" fill="var(--heading)"/>
<path data-role="pt" data-cluster="0" data-mark="circle" d="M253.54 117.22a4.5 4.5 0 1 0 9 0a4.5 4.5 0 1 0 -9 0Z" fill="var(--heading)"/>
<path data-role="pt" data-cluster="0" data-mark="circle" d="M286.76 164.55a4.5 4.5 0 1 0 9 0a4.5 4.5 0 1 0 -9 0Z" fill="var(--heading)"/>
<path data-role="pt" data-cluster="0" data-mark="circle" d="M226.01 139.29a4.5 4.5 0 1 0 9 0a4.5 4.5 0 1 0 -9 0Z" fill="var(--heading)"/>
<path data-role="pt" data-cluster="0" data-mark="circle" d="M284.79 134.95a4.5 4.5 0 1 0 9 0a4.5 4.5 0 1 0 -9 0Z" fill="var(--heading)"/>
<path data-role="pt" data-cluster="0" data-mark="circle" d="M206.36 142.35a4.5 4.5 0 1 0 9 0a4.5 4.5 0 1 0 -9 0Z" fill="var(--heading)"/>
<path data-role="pt" data-cluster="0" data-mark="circle" d="M243.79 102.94a4.5 4.5 0 1 0 9 0a4.5 4.5 0 1 0 -9 0Z" fill="var(--heading)"/>
<path data-role="pt" data-cluster="0" data-mark="circle" d="M236.52 127.78a4.5 4.5 0 1 0 9 0a4.5 4.5 0 1 0 -9 0Z" fill="var(--heading)"/>
<path data-role="pt" data-cluster="0" data-mark="circle" d="M268.32 109.83a4.5 4.5 0 1 0 9 0a4.5 4.5 0 1 0 -9 0Z" fill="var(--heading)"/>
<path data-role="pt" data-cluster="0" data-mark="circle" d="M244.95 120.31a4.5 4.5 0 1 0 9 0a4.5 4.5 0 1 0 -9 0Z" fill="var(--heading)"/>
<path data-role="pt" data-cluster="0" data-mark="circle" d="M199.98 150.75a4.5 4.5 0 1 0 9 0a4.5 4.5 0 1 0 -9 0Z" fill="var(--heading)"/>
<path data-role="pt" data-cluster="0" data-mark="circle" d="M219.75 151.37a4.5 4.5 0 1 0 9 0a4.5 4.5 0 1 0 -9 0Z" fill="var(--heading)"/>
<path data-role="pt" data-cluster="0" data-mark="circle" d="M228.27 153.36a4.5 4.5 0 1 0 9 0a4.5 4.5 0 1 0 -9 0Z" fill="var(--heading)"/>
<path data-role="pt" data-cluster="0" data-mark="circle" d="M217.39 111.99a4.5 4.5 0 1 0 9 0a4.5 4.5 0 1 0 -9 0Z" fill="var(--heading)"/>
<path data-role="pt" data-cluster="0" data-mark="circle" d="M219 136.91a4.5 4.5 0 1 0 9 0a4.5 4.5 0 1 0 -9 0Z" fill="var(--heading)"/>
<path data-role="pt" data-cluster="0" data-mark="circle" d="M195.77 151.18a4.5 4.5 0 1 0 9 0a4.5 4.5 0 1 0 -9 0Z" fill="var(--heading)"/>
<path data-role="pt" data-cluster="0" data-mark="circle" d="M244.78 137.12a4.5 4.5 0 1 0 9 0a4.5 4.5 0 1 0 -9 0Z" fill="var(--heading)"/>
<path data-role="pt" data-cluster="0" data-mark="circle" d="M264.65 140.31a4.5 4.5 0 1 0 9 0a4.5 4.5 0 1 0 -9 0Z" fill="var(--heading)"/>
<path data-role="pt" data-cluster="0" data-mark="circle" d="M300.11 177.59a4.5 4.5 0 1 0 9 0a4.5 4.5 0 1 0 -9 0Z" fill="var(--heading)"/>
<path data-role="pt" data-cluster="0" data-mark="circle" d="M233.51 145.36a4.5 4.5 0 1 0 9 0a4.5 4.5 0 1 0 -9 0Z" fill="var(--heading)"/>
<path data-role="pt" data-cluster="0" data-mark="circle" d="M237.95 123.74a4.5 4.5 0 1 0 9 0a4.5 4.5 0 1 0 -9 0Z" fill="var(--heading)"/>
<path data-role="pt" data-cluster="0" data-mark="circle" d="M246.23 125.15a4.5 4.5 0 1 0 9 0a4.5 4.5 0 1 0 -9 0Z" fill="var(--heading)"/>
<path data-role="pt" data-cluster="0" data-mark="circle" d="M278.81 125.03a4.5 4.5 0 1 0 9 0a4.5 4.5 0 1 0 -9 0Z" fill="var(--heading)"/>
<path data-role="pt" data-cluster="0" data-mark="circle" d="M262.07 124.45a4.5 4.5 0 1 0 9 0a4.5 4.5 0 1 0 -9 0Z" fill="var(--heading)"/>
<path data-role="pt" data-cluster="0" data-mark="circle" d="M261.34 103.74a4.5 4.5 0 1 0 9 0a4.5 4.5 0 1 0 -9 0Z" fill="var(--heading)"/>
<path data-role="pt" data-cluster="0" data-mark="circle" d="M244.08 156.52a4.5 4.5 0 1 0 9 0a4.5 4.5 0 1 0 -9 0Z" fill="var(--heading)"/>
<path data-role="pt" data-cluster="0" data-mark="circle" d="M260.44 124.68a4.5 4.5 0 1 0 9 0a4.5 4.5 0 1 0 -9 0Z" fill="var(--heading)"/>
<path data-role="pt" data-cluster="0" data-mark="circle" d="M229.47 107.44a4.5 4.5 0 1 0 9 0a4.5 4.5 0 1 0 -9 0Z" fill="var(--heading)"/>
<path data-role="pt" data-cluster="0" data-mark="circle" d="M251.69 111.01a4.5 4.5 0 1 0 9 0a4.5 4.5 0 1 0 -9 0Z" fill="var(--heading)"/>
<path data-role="pt" data-cluster="0" data-mark="circle" d="M257.33 157.06a4.5 4.5 0 1 0 9 0a4.5 4.5 0 1 0 -9 0Z" fill="var(--heading)"/>
<path data-role="pt" data-cluster="0" data-mark="circle" d="M234.53 111.32a4.5 4.5 0 1 0 9 0a4.5 4.5 0 1 0 -9 0Z" fill="var(--heading)"/>
<path data-role="pt" data-cluster="0" data-mark="circle" d="M236 153.51a4.5 4.5 0 1 0 9 0a4.5 4.5 0 1 0 -9 0Z" fill="var(--heading)"/>
<path data-role="pt" data-cluster="0" data-mark="circle" d="M245.06 108.08a4.5 4.5 0 1 0 9 0a4.5 4.5 0 1 0 -9 0Z" fill="var(--heading)"/>
<path data-role="pt" data-cluster="0" data-mark="circle" d="M249.79 150.21a4.5 4.5 0 1 0 9 0a4.5 4.5 0 1 0 -9 0Z" fill="var(--heading)"/>
<path data-role="pt" data-cluster="0" data-mark="circle" d="M234.16 116.81a4.5 4.5 0 1 0 9 0a4.5 4.5 0 1 0 -9 0Z" fill="var(--heading)"/>
<path data-role="pt" data-cluster="0" data-mark="circle" d="M246.09 132.38a4.5 4.5 0 1 0 9 0a4.5 4.5 0 1 0 -9 0Z" fill="var(--heading)"/>
<path data-role="pt" data-cluster="0" data-mark="circle" d="M222.36 111.21a4.5 4.5 0 1 0 9 0a4.5 4.5 0 1 0 -9 0Z" fill="var(--heading)"/>
<path data-role="pt" data-cluster="0" data-mark="circle" d="M259.53 85.76a4.5 4.5 0 1 0 9 0a4.5 4.5 0 1 0 -9 0Z" fill="var(--heading)"/>
<path data-role="pt" data-cluster="0" data-mark="circle" d="M253.44 182.27a4.5 4.5 0 1 0 9 0a4.5 4.5 0 1 0 -9 0Z" fill="var(--heading)"/>
<path data-role="pt" data-cluster="0" data-mark="circle" d="M242.58 107.13a4.5 4.5 0 1 0 9 0a4.5 4.5 0 1 0 -9 0Z" fill="var(--heading)"/>
<path data-role="pt" data-cluster="0" data-mark="circle" d="M257.33 117.57a4.5 4.5 0 1 0 9 0a4.5 4.5 0 1 0 -9 0Z" fill="var(--heading)"/>
<path data-role="pt" data-cluster="0" data-mark="circle" d="M234.69 164.22a4.5 4.5 0 1 0 9 0a4.5 4.5 0 1 0 -9 0Z" fill="var(--heading)"/>
<path data-role="pt" data-cluster="0" data-mark="circle" d="M257.16 146.71a4.5 4.5 0 1 0 9 0a4.5 4.5 0 1 0 -9 0Z" fill="var(--heading)"/>
<path d="M239.77 130.28a9 9 0 1 0 18 0a9 9 0 1 0 -18 0Z" fill="var(--bg)" stroke="var(--bg)" stroke-width="7"/>
<path data-role="center" data-cluster="0" data-mark="circle" d="M239.77 130.28a9 9 0 1 0 18 0a9 9 0 1 0 -18 0Z" fill="var(--heading)" stroke="var(--ink)" stroke-width="3"/>
<path d="M149.91 279.4H167.91V297.4H149.91Z" fill="var(--bg)" stroke="var(--bg)" stroke-width="7"/>
<path data-role="center" data-cluster="1" data-mark="square" d="M149.91 279.4H167.91V297.4H149.91Z" fill="var(--heading)" stroke="var(--ink)" stroke-width="3"/>
<path d="M336.32 256.32L345.32 272.52L327.32 272.52Z" fill="var(--bg)" stroke="var(--bg)" stroke-width="7"/>
<path data-role="center" data-cluster="2" data-mark="triangle" d="M336.32 256.32L345.32 272.52L327.32 272.52Z" fill="var(--heading)" stroke="var(--ink)" stroke-width="3"/>
</g>
<text data-role="phase" x="32" y="424" font-size="12" fill="var(--heading)">nothing moved on the last pass, so this is where it stops</text>
<text data-role="iter" x="32" y="440" font-size="11" fill="var(--text)">iteration 2</text>
<text data-role="cost" x="166" y="440" font-size="11" fill="var(--text)">total squared distance 89.7</text>
<text data-role="note" x="32" y="454" font-size="11" fill="var(--text-light)">150 generated points, three blobs</text>
<text x="460" y="60" font-size="11" fill="var(--text-light)">each group, by shape</text>
<g data-role="legend-mark">
<path d="M461 90a8 8 0 1 0 16 0a8 8 0 1 0 -16 0Z" fill="var(--heading)"/>
<text x="488" y="94" font-size="12" fill="var(--text)">group 1, n = 50</text>
</g>
<g data-role="legend-mark">
<path d="M461 112H477V128H461Z" fill="var(--heading)"/>
<text x="488" y="124" font-size="12" fill="var(--text)">group 2, n = 50</text>
</g>
<g data-role="legend-mark">
<path d="M469 142L477 156.4L461 156.4Z" fill="var(--heading)"/>
<text x="488" y="154" font-size="12" fill="var(--text)">group 3, n = 50</text>
</g>
</svg>
